<?xml version="1.0" encoding="UTF-8" standalone="no"?>
<svg
   xmlns:dc="http://purl.org/dc/elements/1.1/"
   xmlns:cc="http://creativecommons.org/ns#"
   xmlns:rdf="http://www.w3.org/1999/02/22-rdf-syntax-ns#"
   xmlns:svg="http://www.w3.org/2000/svg"
   xmlns="http://www.w3.org/2000/svg"
   xmlns:sodipodi="http://sodipodi.sourceforge.net/DTD/sodipodi-0.dtd"
   xmlns:inkscape="http://www.inkscape.org/namespaces/inkscape"
   width="44.574463mm"
   height="46.538719mm"
   viewBox="0 0 44.574463 46.538718"
   version="1.1"
   id="svg8"
   sodipodi:docname="logoRPGixR.svg"
   inkscape:version="1.0.1 (3bc2e813f5, 2020-09-07, custom)">
  <style
     id="style1037"></style>
  <defs
     id="defs2" />
  <sodipodi:namedview
     id="base"
     pagecolor="#ffffff"
     bordercolor="#666666"
     borderopacity="1.0"
     inkscape:pageopacity="0.0"
     inkscape:pageshadow="2"
     inkscape:zoom="3.959798"
     inkscape:cx="-9.8933035"
     inkscape:cy="92.849648"
     inkscape:document-units="mm"
     inkscape:current-layer="layer1"
     inkscape:document-rotation="0"
     showgrid="false"
     inkscape:snap-object-midpoints="true"
     inkscape:window-width="1920"
     inkscape:window-height="1014"
     inkscape:window-x="0"
     inkscape:window-y="38"
     inkscape:window-maximized="1"
     fit-margin-top="0"
     fit-margin-left="0"
     fit-margin-right="0"
     fit-margin-bottom="0" />
  <metadata
     id="metadata5">
    <rdf:RDF>
      <cc:Work
         rdf:about="">
        <dc:format>image/svg+xml</dc:format>
        <dc:type
           rdf:resource="http://purl.org/dc/dcmitype/StillImage" />
        <dc:title></dc:title>
      </cc:Work>
    </rdf:RDF>
  </metadata>
  <g
     inkscape:label="Layer 1"
     inkscape:groupmode="layer"
     id="layer1"
     transform="translate(-67.361729,-59.879682)">
    <g
       id="g26"
       style="opacity:1"
       transform="translate(31.576694,-5.8677725)" />
    <path
       id="rect900"
       style="fill:#a7d7c5;fill-opacity:1;stroke-width:0.428601"
       d="m 87.983099,59.880089 c -4.44381,-0.0121 -8.848678,-0.01466 -13.279888,-0.01466 l -5.627082,25.122949 h 2.5716 l -4.286,21.430021 h 10.28641 l 5.096077,-0.0317 0.813923,-4.25426 2.23341,-10.715011 h 0.4286 l 5.03689,10.286411 2.389207,4.805 5.431913,-0.0904 h 12.858031 l -3.74691,-7.714811 -6.53951,-12.00081 1.7144,-1.7144 h -1.7144 c 2.01314,-2.01344 4.11296,-3.97652 5.60278,-6.42901 0.89064,-1.46581 1.5955,-3.05862 2.04338,-4.71461 1.72982,-6.39463 -1.92649,-11.03352 -8.07477,-12.57339 -4.366751,-1.09364 -8.794241,-1.37913 -13.238061,-1.39128 z m -0.47715,11.82167 c 0.99041,0.003 2.02739,-0.0588 2.99936,0.1691 2.75762,0.64654 3.50288,3.20195 1.54615,5.25705 -1.595,1.67518 -4.048,2.18759 -6.25991,2.28866 z"
       inkscape:export-xdpi="96"
       inkscape:export-ydpi="96"
       sodipodi:nodetypes="ccccccccccccccccccccccccscc" />
  </g>
</svg>
