<?xml version="1.0" encoding="UTF-8" standalone="no"?>
<svg
   xmlns:dc="http://purl.org/dc/elements/1.1/"
   xmlns:cc="http://creativecommons.org/ns#"
   xmlns:rdf="http://www.w3.org/1999/02/22-rdf-syntax-ns#"
   xmlns:svg="http://www.w3.org/2000/svg"
   xmlns="http://www.w3.org/2000/svg"
   xmlns:sodipodi="http://sodipodi.sourceforge.net/DTD/sodipodi-0.dtd"
   xmlns:inkscape="http://www.inkscape.org/namespaces/inkscape"
   width="110.93634mm"
   height="143.37318mm"
   viewBox="0 0 110.93634 143.37318"
   version="1.1"
   id="svg8"
   sodipodi:docname="logoRPGix.svg"
   inkscape:version="1.0.1 (3bc2e813f5, 2020-09-07, custom)">
  <style
     id="style1037" />
  <defs
     id="defs2" />
  <sodipodi:namedview
     id="base"
     pagecolor="#ffffff"
     bordercolor="#666666"
     borderopacity="1.0"
     inkscape:pageopacity="0.0"
     inkscape:pageshadow="2"
     inkscape:zoom="0.98994949"
     inkscape:cx="401.16464"
     inkscape:cy="215.79887"
     inkscape:document-units="mm"
     inkscape:current-layer="layer1"
     inkscape:document-rotation="0"
     showgrid="false"
     inkscape:snap-object-midpoints="true"
     inkscape:window-width="1920"
     inkscape:window-height="1014"
     inkscape:window-x="0"
     inkscape:window-y="38"
     inkscape:window-maximized="1"
     fit-margin-top="0"
     fit-margin-left="0"
     fit-margin-right="0"
     fit-margin-bottom="0" />
  <metadata
     id="metadata5">
    <rdf:RDF>
      <cc:Work
         rdf:about="">
        <dc:format>image/svg+xml</dc:format>
        <dc:type
           rdf:resource="http://purl.org/dc/dcmitype/StillImage" />
        <dc:title />
      </cc:Work>
    </rdf:RDF>
  </metadata>
  <g
     inkscape:label="Layer 1"
     inkscape:groupmode="layer"
     id="layer1"
     transform="translate(-28.934973,-22.635736)">
    <rect
       style="fill:#699692;fill-opacity:1;stroke-width:0.327751"
       id="rect938"
       width="110.93634"
       height="143.37318"
       x="28.934973"
       y="22.635736"
       ry="6.0699787"
       inkscape:export-xdpi="96"
       inkscape:export-ydpi="96" />
    <g
       id="g26"
       style="opacity:1"
       transform="translate(31.576694,-5.8677725)" />
    <path
       id="rect900"
       style="fill:#a7d7c5;fill-opacity:1;stroke-width:0.4286"
       d="m 81.129202,52.498619 c -4.443814,-0.01215 -9.054132,0.06242 -13.485343,0.06242 l -5.42163,25.045871 h 2.571603 l -4.286005,21.430025 h 10.286411 l 5.28574,0.08349 0.624259,-4.369492 2.233412,-10.715012 h 0.4286 l 5.036891,10.286412 2.134623,4.699526 5.686501,0.01508 h 12.858026 l -3.74691,-7.714809 -6.539508,-12.000814 1.714397,-1.714402 h -1.714397 c 2.01314,-2.013436 4.112961,-3.976516 5.602778,-6.429008 0.89064,-1.465813 1.5955,-3.058622 2.04338,-4.714606 1.72982,-6.394633 -1.92649,-11.033522 -8.074769,-12.573398 -4.366747,-1.093638 -8.794243,-1.379121 -13.238059,-1.39128 z M 80.65205,64.320296 c 0.99041,0.0028 2.027387,-0.05879 2.999364,0.169095 2.757621,0.646544 3.502878,3.201955 1.546147,5.25705 -1.594995,1.675185 -4.047995,2.187595 -6.259912,2.288664 z"
       inkscape:export-xdpi="96"
       inkscape:export-ydpi="96"
       sodipodi:nodetypes="sccccccccccccccccccccscsscc" />
    <path
       id="rect920"
       style="fill:#ffffff;fill-opacity:1;stroke-width:0.12345"
       d="m 87.923693,110.76785 c -2.028471,0.0412 -4.024219,1.02463 -4.964547,2.9539 -0.514642,1.05605 -0.491392,2.1899 -0.491392,3.33316 v 3.82697 10.24638 c 0,1.71622 -0.108906,3.47303 0.01107,5.18492 0.364669,5.20332 7.979623,6.47623 10.527767,2.22212 1.002169,-1.67301 0.695131,-3.81228 0.695131,-5.67873 v -11.7278 h -6.295968 v 4.07387 h 2.345552 c -0.201705,0.84737 -0.04211,1.61819 -0.0051,2.46901 0.05737,1.31179 0.0051,2.63728 0.0051,3.95042 v 2.96281 c 0,0.52566 0.05341,1.11464 -0.17697,1.60437 -0.560593,1.19179 -2.426874,1.15155 -3.010797,0 -0.237888,-0.46911 -0.145392,-1.09513 -0.145392,-1.60437 v -3.08625 -11.35746 -3.20971 c 2.42e-4,-0.64447 -0.0138,-1.22854 0.50731,-1.69383 0.242572,-0.2166 0.530293,-0.3384 0.850643,-0.3812 0.240235,-0.0321 0.502816,-0.0295 0.740704,0.0191 1.072423,0.21854 1.110592,1.1605 1.111058,2.05598 1.2e-4,0.32306 -0.09253,0.87761 0.197951,1.10767 0.280603,0.22218 0.827548,0.12681 1.160003,0.12683 h 2.715906 c 0,-1.84585 0.195812,-3.76402 -1.034617,-5.30837 -1.138365,-1.42882 -2.953615,-2.12607 -4.743439,-2.08973 z m 7.876721,0.48488 v 29.25778 h 3.826964 l 0.123444,-21.48039 v -5.55528 l -0.126816,-2.02415 -0.984234,-0.19796 z m -39.751069,0.12345 v 29.38123 h 3.950412 v -6.17253 c 1.01356,0.033 1.142947,0.76379 1.443316,1.60485 0.367983,1.03032 0.738019,2.06311 1.125518,3.08626 0.146962,0.38802 0.2424,0.9731 0.528041,1.2837 0.277679,0.30184 0.856495,0.19772 1.2239,0.19772 h 2.96281 c -0.368138,-1.59054 -1.081207,-3.16379 -1.657175,-4.69113 -0.204094,-0.5412 -0.697608,-1.38572 -0.640398,-1.97038 0.04546,-0.46479 0.61895,-0.78881 0.899355,-1.11756 0.515781,-0.60454 0.902409,-1.318 1.068611,-2.09698 0.305726,-1.433 0.08274,-3.10552 0.08274,-4.56767 v -8.88842 c 0,-1.86464 -0.05686,-3.5849 -1.606781,-4.89728 -1.372413,-1.1621 -2.997167,-1.15181 -4.689197,-1.15181 z m 13.332654,0 v 29.25777 h 3.950418 v -6.04907 c 1.273395,0 2.60456,0.11865 3.826966,-0.31441 0.43344,-0.15345 0.860945,-0.37951 1.234502,-0.64715 2.127921,-1.52449 1.975213,-3.86881 1.975213,-6.19856 v -6.17254 -3.82695 c 0,-1.45004 0.0026,-2.86502 -0.9295,-4.07387 -1.518185,-1.96971 -3.473857,-1.97522 -5.736826,-1.97522 z m 32.344041,0 2.61103,9.87604 0.89162,3.33317 0.32841,1.60485 -0.93938,3.70352 -1.58604,6.04908 -1.18219,4.81457 h 3.45661 l 1.97521,-7.90084 h 0.12345 l 1.49997,5.67873 0.68862,2.09528 1.02112,0.12683 h 2.34555 l -0.96904,-3.95042 -1.97809,-7.53049 -0.77929,-3.08626 0.35733,-1.72829 0.73034,-2.71591 2.7622,-10.36986 h -3.58005 l -2.09866,7.90084 -1.15736,-4.19732 -0.9413,-3.70352 z M 61.385932,115.153 c 0.646965,0.006 1.283705,0.11177 1.608473,0.5618 0.536393,0.74327 0.215068,2.43391 0.215068,3.31532 v 8.02428 c 0,0.86168 0.304717,2.46236 -0.215068,3.19332 -0.577297,0.81169 -2.131847,0.51019 -2.994648,0.51019 v -15.55476 c 0.373549,0 0.882973,-0.055 1.386175,-0.0501 z m 13.317699,4.7e-4 c 0.639873,0.007 1.268089,0.11518 1.580511,0.5712 0.537377,0.78416 0.25799,2.27671 0.25799,3.18198 v 8.02429 c 0,0.91278 0.331075,2.67337 -0.333706,3.40308 -0.547376,0.60084 -2.131476,0.30043 -2.876009,0.30043 v -15.4313 c 0.368829,0 0.873541,-0.0553 1.371214,-0.0497 z"
       inkscape:export-xdpi="96"
       inkscape:export-ydpi="96" />
    <path
       id="rect942"
       style="fill:none;fill-opacity:1;stroke:#ffffff;stroke-width:1.25155;stroke-opacity:1"
       d="M 48.867702,40.315952 H 119.93858 V 148.32871 H 48.867702 Z" />
  </g>
</svg>
